<svg width="275" height="43" viewBox="0 0 275 43" fill="none" xmlns="http://www.w3.org/2000/svg">
<path d="M12.95 20.7C11.65 20.7 10.55 20.6667 9.65 20.6C8.78333 20.5 7.63333 20.35 6.2 20.15L6.15 25.4C6.11667 26.3 6.1 27.5833 6.1 29.25C6.1 30.1167 5.85 30.8 5.35 31.3C4.88333 31.7667 4.35 32 3.75 32C2.65 32 1.83333 31.8667 1.3 31.6C0.766667 31.3 0.5 30.7833 0.5 30.05C0.5 29.0833 0.583333 27.7167 0.75 25.95C1.11667 22.15 1.3 18.25 1.3 14.25C1.3 10.5167 1.18333 7 0.95 3.7C0.983334 3.23333 1.21667 2.7 1.65 2.1C2.11667 1.5 2.7 1.16666 3.4 1.1C4.16667 1.1 5.38333 0.966665 7.05 0.699998C8.78333 0.433332 10.1 0.3 11 0.3C13.7333 0.3 15.85 0.566666 17.35 1.1C18.8833 1.63333 20.4167 2.51666 21.95 3.75C23.6167 6.35 24.45 8.18333 24.45 9.25C24.45 11.4833 24 13.4667 23.1 15.2C22.2 16.9333 20.8833 18.2833 19.15 19.25C17.4167 20.2167 15.35 20.7 12.95 20.7ZM11.8 4.55C10.7333 4.55 9.8 4.61667 9 4.75C8.23333 4.85 7.3 5.03333 6.2 5.3C6.33333 8.36666 6.4 10.6 6.4 12C6.4 13.4333 6.35 14.6333 6.25 15.6C7.68333 15.9 8.81667 16.1 9.65 16.2C10.4833 16.2667 11.4167 16.3 12.45 16.3C14.9167 16.3 16.65 15.6667 17.65 14.4C18.6833 13.1 19.2 11.6 19.2 9.9C19.2 9.4 19.05 8.78333 18.75 8.05C18.45 7.31666 18.1833 6.83333 17.95 6.6C17.05 5.8 16.1667 5.26667 15.3 5C14.4667 4.7 13.3 4.55 11.8 4.55ZM35.6145 30C35.6145 30.5667 35.3978 31.0667 34.9645 31.5C34.5311 31.9333 33.9978 32.15 33.3645 32.15C32.3645 32.15 31.6311 31.9667 31.1645 31.6C30.6978 31.2 30.4645 30.4833 30.4645 29.45C30.4645 28.2167 30.4311 26.6 30.3645 24.6C30.2978 22.9333 30.2645 21.5333 30.2645 20.4C30.2645 19.8667 30.2978 19.1667 30.3645 18.3C30.4311 17.5 30.4645 16.9 30.4645 16.5C30.3645 15.8667 30.1145 15.35 29.7145 14.95C29.3145 14.5167 28.7978 14.3 28.1645 14.3C27.8645 14.3 27.6145 14.1667 27.4145 13.9C27.2145 13.6 27.1145 13.3 27.1145 13C27.1145 12.2333 27.4145 11.65 28.0145 11.25C28.6478 10.85 29.3978 10.65 30.2645 10.65C32.0645 10.65 33.3145 11.7167 34.0145 13.85C34.8811 12.85 35.8645 12.05 36.9645 11.45C38.0978 10.8167 39.1811 10.5 40.2145 10.5C41.4478 10.5 42.5645 10.8333 43.5645 11.5C44.5978 12.1667 45.1145 13.0667 45.1145 14.2C45.1145 14.8333 44.8311 15.4833 44.2645 16.15C43.7311 16.8167 43.1811 17.15 42.6145 17.15C42.3145 17.15 42.0478 17.0833 41.8145 16.95C41.6145 16.7833 41.3645 16.55 41.0645 16.25C40.7311 15.9167 40.4478 15.6833 40.2145 15.55C39.9811 15.3833 39.7145 15.3 39.4145 15.3C38.8811 15.3 38.3811 15.3833 37.9145 15.55C37.4478 15.7167 37.1311 15.9167 36.9645 16.15C36.4311 16.9833 36.0311 17.7333 35.7645 18.4C35.5311 19.0667 35.4145 19.7833 35.4145 20.55C35.4145 21.1167 35.3978 21.5667 35.3645 21.9L35.3145 24.75C35.3145 25.1833 35.3311 25.6667 35.3645 26.2C35.3978 26.7333 35.4311 27.1333 35.4645 27.4C35.5645 28.3 35.6145 29.1667 35.6145 30ZM67.8875 15.95C68.1542 16.4167 68.3708 17.1 68.5375 18C68.7042 18.8667 68.7875 19.65 68.7875 20.35C68.7875 21.65 68.5042 23.5 67.9375 25.9C65.6375 30.1 62.2375 32.2 57.7375 32.2C56.0708 32.2 54.3708 31.65 52.6375 30.55C50.9042 29.45 49.7042 28.1833 49.0375 26.75C48.1375 23.8833 47.6875 22.0667 47.6875 21.3C47.6875 19.9667 47.9708 18.55 48.5375 17.05C49.1375 15.55 49.8875 14.25 50.7875 13.15C51.3542 12.3833 52.3708 11.7333 53.8375 11.2C55.3042 10.6333 56.6375 10.35 57.8375 10.35C60.1708 10.35 62.1542 10.8 63.7875 11.7C65.4208 12.5667 66.7875 13.9833 67.8875 15.95ZM63.5375 24C63.7042 23.5667 63.7875 22.45 63.7875 20.65C63.7875 19.6833 63.6042 18.7333 63.2375 17.8C62.9042 16.8667 62.4042 16.0667 61.7375 15.4C61.6708 15.3333 61.4875 15.2333 61.1875 15.1C60.8875 14.9333 60.4708 14.7833 59.9375 14.65C59.4375 14.4833 58.8542 14.4 58.1875 14.4C56.3208 14.4 54.9542 15.15 54.0875 16.65C53.2208 18.15 52.7875 19.85 52.7875 21.75C52.7875 22.0833 52.8708 22.7167 53.0375 23.65C53.2375 24.5833 53.4042 25.1667 53.5375 25.4C53.6375 25.6333 53.8875 25.9667 54.2875 26.4C54.7208 26.8 55.2375 27.1667 55.8375 27.5C56.4708 27.8 57.1208 27.95 57.7875 27.95C59.2875 27.95 60.4875 27.6 61.3875 26.9C62.2875 26.1667 63.0042 25.2 63.5375 24ZM111.104 27.3C111.604 27.3 112.004 27.5167 112.304 27.95C112.637 28.3833 112.804 28.85 112.804 29.35C112.804 30.2167 112.471 30.8833 111.804 31.35C111.171 31.7833 110.337 32 109.304 32C107.771 32 106.537 31.7333 105.604 31.2C104.671 30.6667 103.837 29.6667 103.104 28.2C102.871 27.6667 102.587 26.8 102.254 25.6C101.954 24.4 101.637 23.45 101.304 22.75C101.004 22.0167 100.487 21.4 99.7539 20.9C99.0539 20.4 98.0872 20.1333 96.8539 20.1L95.7539 20.15C94.6206 20.2167 93.7706 20.25 93.2039 20.25C92.5372 20.25 91.9039 20.2 91.3039 20.1C91.3706 24.5 91.4039 27.8667 91.4039 30.2C91.4039 30.8 91.1039 31.3 90.5039 31.7C89.9372 32.1 89.2872 32.3 88.5539 32.3C87.6872 32.3 87.0039 31.9667 86.5039 31.3C86.1039 30.5 85.9039 29.3167 85.9039 27.75C85.9039 27.2167 85.9372 26.45 86.0039 25.45L86.0539 23.25C86.0539 21.2167 86.1372 19.0333 86.3039 16.7C86.4372 14.0333 86.5039 12.0833 86.5039 10.85C86.5039 9.81667 86.4039 8.43333 86.2039 6.7C86.1706 6.36666 86.1206 5.83333 86.0539 5.1C85.9872 4.33333 85.9539 3.65 85.9539 3.05C85.9539 2.61667 86.1372 2.21667 86.5039 1.85C86.8706 1.48333 87.2372 1.25 87.6039 1.15C90.3372 0.716664 93.0372 0.499997 95.7039 0.499997C100.037 0.499997 103.587 1.31666 106.354 2.95C109.121 4.58333 110.504 7.08333 110.504 10.45C110.504 11.45 110.237 12.5 109.704 13.6C109.204 14.6667 108.571 15.5 107.804 16.1C106.504 17.2333 105.104 17.9667 103.604 18.3C103.671 18.3667 104.037 18.7 104.704 19.3C105.371 19.9 105.821 20.5333 106.054 21.2L106.704 23.2C107.271 24.8333 107.721 25.9667 108.054 26.6C108.387 27.2 108.821 27.5 109.354 27.5C109.854 27.5 110.154 27.4667 110.254 27.4C110.387 27.3333 110.671 27.3 111.104 27.3ZM91.2539 15.85C92.2539 15.9167 92.9539 15.95 93.3539 15.95C93.9539 15.95 94.7872 15.9167 95.8539 15.85L98.2039 15.8C99.2372 15.8 100.304 15.5667 101.404 15.1C102.504 14.6333 103.421 13.9833 104.154 13.15C104.887 12.2833 105.254 11.3167 105.254 10.25C105.254 8.35 104.487 6.96667 102.954 6.1C101.421 5.23333 99.0372 4.8 95.8039 4.8C94.5706 4.8 93.1206 4.96667 91.4539 5.3C91.5206 6.5 91.5539 7.36667 91.5539 7.9C91.5539 8.53333 91.5206 9.48333 91.4539 10.75L91.4039 12.2C91.3039 13.6 91.2539 14.8167 91.2539 15.85ZM115.41 20.55C115.41 18.5167 115.86 16.8333 116.76 15.5C117.66 14.1333 118.91 12.85 120.51 11.65C120.976 11.3167 121.76 11.0333 122.86 10.8C123.96 10.5333 124.926 10.4 125.76 10.4C126.76 10.4 127.81 10.6167 128.91 11.05C130.043 11.45 130.96 11.9167 131.66 12.45C132.893 13.35 133.743 14.4 134.21 15.6C134.676 16.7667 134.91 18.1667 134.91 19.8C134.91 20.5 134.51 21.1833 133.71 21.85C132.943 22.4833 132.11 22.8 131.21 22.8L129.31 22.75C128.343 22.75 126.96 22.7833 125.16 22.85L124.11 22.9C123.376 22.9667 122.826 23 122.46 23C121.926 23 121.193 22.9333 120.26 22.8C120.393 24.3667 120.976 25.6 122.01 26.5C123.043 27.3667 124.16 27.8 125.36 27.8C127.46 27.8 128.926 27.3833 129.76 26.55C130.46 26.05 130.926 25.7333 131.16 25.6C131.393 25.4667 131.76 25.4 132.26 25.4C132.793 25.4 133.26 25.65 133.66 26.15C134.06 26.65 134.26 27.15 134.26 27.65C134.26 28.2167 133.91 28.8 133.21 29.4C132.543 29.9667 131.626 30.5667 130.46 31.2C129.826 31.4667 128.96 31.7 127.86 31.9C126.76 32.1 125.843 32.2 125.11 32.2C123.943 32.2 122.643 31.8667 121.21 31.2C119.776 30.5 118.71 29.7333 118.01 28.9C117.31 28.0667 116.693 26.8833 116.16 25.35C115.66 23.8167 115.41 22.2167 115.41 20.55ZM125.36 19.2C127.726 19.2 129.46 19.1167 130.56 18.95C130.493 17.9833 130.193 17.2 129.66 16.6C129.126 15.9667 128.393 15.4333 127.46 15C127.16 14.8667 126.893 14.7667 126.66 14.7C126.426 14.6333 126.16 14.6 125.86 14.6C124.326 14.6 123.026 15.0167 121.96 15.85C120.926 16.6833 120.31 17.75 120.11 19.05C121.776 19.15 123.526 19.2 125.36 19.2ZM155.19 16.85C154.69 16.85 154.257 16.7333 153.89 16.5C153.557 16.2333 153.207 15.8833 152.84 15.45C152.474 15.0167 152.074 14.7333 151.64 14.6C151.24 14.4667 150.774 14.4 150.24 14.4C149.274 14.4 148.324 14.7 147.39 15.3C146.49 15.8667 145.74 16.6667 145.14 17.7C144.574 18.7333 144.29 19.8833 144.29 21.15C144.29 22.55 144.557 23.7167 145.09 24.65C145.657 25.5833 146.54 26.4 147.74 27.1C148.174 27.3333 148.674 27.5167 149.24 27.65C149.84 27.7833 150.357 27.85 150.79 27.85C151.824 27.85 153.157 27.4 154.79 26.5C154.924 26.4333 155.174 26.3167 155.54 26.15C155.94 25.95 156.24 25.85 156.44 25.85C156.807 25.85 157.224 26.0333 157.69 26.4C158.157 26.7333 158.39 27.15 158.39 27.65C158.39 28.65 157.957 29.5 157.09 30.2C156.257 30.9 155.207 31.4167 153.94 31.75C152.674 32.0833 151.424 32.25 150.19 32.25C148.224 32.25 146.39 31.8 144.69 30.9C142.99 30 141.64 28.75 140.64 27.15C139.64 25.55 139.14 23.75 139.14 21.75C139.14 19.5833 139.624 17.6333 140.59 15.9C141.557 14.1333 142.857 12.75 144.49 11.75C146.157 10.7167 147.957 10.2 149.89 10.2C151.757 10.2 153.474 10.5667 155.04 11.3C156.64 12.0333 157.44 13.15 157.44 14.65C157.44 16.1167 156.69 16.85 155.19 16.85ZM182.094 15.95C182.361 16.4167 182.577 17.1 182.744 18C182.911 18.8667 182.994 19.65 182.994 20.35C182.994 21.2833 182.844 22.45 182.544 23.85C182.244 25.2167 181.994 26.1333 181.794 26.6C179.994 30.3333 176.527 32.2 171.394 32.2C169.761 32.2 168.161 31.6667 166.594 30.6C165.027 29.5 163.911 28.2167 163.244 26.75L162.894 25.75C162.861 25.6167 162.677 25.1167 162.344 24.25C162.044 23.35 161.894 22.6667 161.894 22.2C161.894 20.8333 162.227 19.25 162.894 17.45C163.561 15.65 164.327 14.2167 165.194 13.15C165.761 12.3833 166.844 11.7333 168.444 11.2C170.044 10.6333 171.461 10.35 172.694 10.35C174.994 10.35 176.844 10.7833 178.244 11.65C179.677 12.5167 180.961 13.95 182.094 15.95ZM177.494 24C177.627 23.7667 177.744 23.35 177.844 22.75C177.944 22.15 177.994 21.45 177.994 20.65C177.994 19.6833 177.811 18.7333 177.444 17.8C177.111 16.8667 176.611 16.0667 175.944 15.4C175.911 15.3333 175.794 15.2333 175.594 15.1C175.394 14.9333 175.077 14.7833 174.644 14.65C174.211 14.4833 173.661 14.4 172.994 14.4C171.694 14.4 170.594 14.7833 169.694 15.55C168.794 16.3167 168.111 17.2667 167.644 18.4C167.211 19.5333 166.994 20.65 166.994 21.75C166.994 22.05 167.094 22.6667 167.294 23.6C167.494 24.5333 167.644 25.1333 167.744 25.4C168.011 25.8667 168.527 26.4167 169.294 27.05C170.061 27.65 170.927 27.95 171.894 27.95C173.394 27.95 174.561 27.6 175.394 26.9C176.261 26.2 176.961 25.2333 177.494 24ZM199.385 19.15C199.485 18.8833 199.835 17.9167 200.435 16.25C201.068 14.5833 201.651 13.3167 202.185 12.45C203.051 11.0833 203.818 10.4 204.485 10.4C205.418 10.4 206.135 10.5833 206.635 10.95C207.135 11.2833 207.385 11.7667 207.385 12.4C207.385 12.7 207.251 13.1167 206.985 13.65C206.751 14.1833 206.618 14.5 206.585 14.6C205.251 17.5333 204.051 20.6833 202.985 24.05L201.935 27.95C201.535 29.2167 200.851 30.25 199.885 31.05C198.918 31.8167 197.785 32.2 196.485 32.2C195.318 32.2 194.235 31.6667 193.235 30.6C192.635 29.6667 192.001 28.4833 191.335 27.05C190.701 25.6167 190.151 24.2167 189.685 22.85L187.935 17.6C187.568 16.5667 187.268 15.6833 187.035 14.95C186.835 14.2167 186.735 13.55 186.735 12.95C186.701 12.25 186.901 11.6833 187.335 11.25C187.768 10.8167 188.368 10.6 189.135 10.6C190.001 10.6 190.618 10.7833 190.985 11.15C191.351 11.4833 191.685 12.0167 191.985 12.75C192.118 13.5167 192.485 15.0833 193.085 17.45L193.435 18.85C193.735 19.9833 194.118 21.1333 194.585 22.3C195.051 23.4667 195.518 24.5833 195.985 25.65C195.918 25.4833 196.151 26.0333 196.685 27.3C197.018 26.3333 197.401 25.15 197.835 23.75L199.385 19.15ZM210.529 21.4C210.529 20.1333 210.763 18.8667 211.229 17.6C211.696 16.3 212.313 15.1167 213.079 14.05C213.846 12.9833 215.063 12.1167 216.729 11.45C218.396 10.75 219.879 10.4 221.179 10.4C222.513 10.4 223.863 10.5833 225.229 10.95C226.629 11.3167 227.596 11.8833 228.129 12.65C229.363 14.3833 229.979 16.0833 229.979 17.75C229.979 18.65 229.779 19.4167 229.379 20.05C229.013 20.6833 228.479 21.3667 227.779 22.1C227.213 22.7 226.313 23.1 225.079 23.3C223.879 23.5 222.679 23.6 221.479 23.6C220.713 23.6 219.779 23.5333 218.679 23.4C217.579 23.2333 216.513 23.0333 215.479 22.8C215.546 23.4667 215.713 24.1167 215.979 24.75C216.246 25.3833 216.563 25.8667 216.929 26.2C217.596 26.8333 218.279 27.2333 218.979 27.4C219.713 27.5667 220.646 27.65 221.779 27.65C222.979 27.65 224.096 27.45 225.129 27.05C225.963 26.75 226.646 26.6 227.179 26.6C227.813 26.6 228.296 26.8 228.629 27.2C228.963 27.5667 229.129 28.05 229.129 28.65C229.129 29.4833 228.646 30.1667 227.679 30.7C226.713 31.2333 225.596 31.6333 224.329 31.9C223.096 32.1333 222.096 32.25 221.329 32.25C219.763 32.25 218.246 31.9667 216.779 31.4C215.313 30.8333 214.096 30.0333 213.129 29C212.329 28.0667 211.696 26.95 211.229 25.65C210.763 24.3167 210.529 22.9 210.529 21.4ZM221.429 14.65C220.696 14.65 219.963 14.8 219.229 15.1C218.496 15.3667 217.896 15.75 217.429 16.25C216.829 16.8833 216.413 17.4 216.179 17.8C215.979 18.1667 215.846 18.6833 215.779 19.35C216.613 19.6167 218.346 19.75 220.979 19.75C222.413 19.75 223.513 19.5333 224.279 19.1C225.079 18.6667 225.479 18.1 225.479 17.4C225.479 16.7 225.046 16.0667 224.179 15.5C223.313 14.9333 222.396 14.65 221.429 14.65ZM242.157 30C242.157 30.5667 241.941 31.0667 241.507 31.5C241.074 31.9333 240.541 32.15 239.907 32.15C238.907 32.15 238.174 31.9667 237.707 31.6C237.241 31.2 237.007 30.4833 237.007 29.45C237.007 28.2167 236.974 26.6 236.907 24.6C236.841 22.9333 236.807 21.5333 236.807 20.4C236.807 19.8667 236.841 19.1667 236.907 18.3C236.974 17.5 237.007 16.9 237.007 16.5C236.907 15.8667 236.657 15.35 236.257 14.95C235.857 14.5167 235.341 14.3 234.707 14.3C234.407 14.3 234.157 14.1667 233.957 13.9C233.757 13.6 233.657 13.3 233.657 13C233.657 12.2333 233.957 11.65 234.557 11.25C235.191 10.85 235.941 10.65 236.807 10.65C238.607 10.65 239.857 11.7167 240.557 13.85C241.424 12.85 242.407 12.05 243.507 11.45C244.641 10.8167 245.724 10.5 246.757 10.5C247.991 10.5 249.107 10.8333 250.107 11.5C251.141 12.1667 251.657 13.0667 251.657 14.2C251.657 14.8333 251.374 15.4833 250.807 16.15C250.274 16.8167 249.724 17.15 249.157 17.15C248.857 17.15 248.591 17.0833 248.357 16.95C248.157 16.7833 247.907 16.55 247.607 16.25C247.274 15.9167 246.991 15.6833 246.757 15.55C246.524 15.3833 246.257 15.3 245.957 15.3C245.424 15.3 244.924 15.3833 244.457 15.55C243.991 15.7167 243.674 15.9167 243.507 16.15C242.974 16.9833 242.574 17.7333 242.307 18.4C242.074 19.0667 241.957 19.7833 241.957 20.55C241.957 21.1167 241.941 21.5667 241.907 21.9L241.857 24.75C241.857 25.1833 241.874 25.6667 241.907 26.2C241.941 26.7333 241.974 27.1333 242.007 27.4C242.107 28.3 242.157 29.1667 242.157 30ZM260.08 42.2C258.247 42.2 256.914 41.8667 256.08 41.2C255.28 40.5667 254.88 39.8667 254.88 39.1C254.88 37.9333 255.43 37.35 256.53 37.35C256.864 37.35 257.297 37.45 257.83 37.65C258.364 37.8833 258.864 38 259.33 38C260.064 38 260.664 37.5167 261.13 36.55C261.597 35.5833 262.064 34.0167 262.53 31.85C261.497 30.65 260.23 28.75 258.73 26.15C257.264 23.55 255.997 21 254.93 18.5C253.864 15.9667 253.33 14.1667 253.33 13.1C253.33 12.2667 253.614 11.65 254.18 11.25C254.78 10.85 255.464 10.65 256.23 10.65C256.83 10.65 257.297 10.7667 257.63 11C257.964 11.2 258.197 11.5833 258.33 12.15C259.13 14.9833 259.98 17.4667 260.88 19.6C261.814 21.7333 262.997 24.05 264.43 26.55C264.997 25.25 265.747 23.0333 266.68 19.9C267.714 16.4 268.58 13.9167 269.28 12.45C269.58 11.85 269.947 11.3667 270.38 11C270.847 10.6333 271.364 10.45 271.93 10.45C272.497 10.45 273.097 10.6667 273.73 11.1C274.397 11.5 274.73 11.9833 274.73 12.55C274.73 12.8833 274.614 13.2833 274.38 13.75C273.08 16.75 271.93 19.5833 270.93 22.25C269.964 24.8833 269.03 27.7833 268.13 30.95C267.597 32.7167 267.03 34.4 266.43 36C265.864 37.6 265.464 38.5833 265.23 38.95C264.564 39.8833 263.814 40.65 262.98 41.25C262.147 41.8833 261.18 42.2 260.08 42.2Z" fill="#6CD8D1"/>
</svg>
